<svg width="22" height="17" viewBox="0 0 22 17" fill="none" xmlns="http://www.w3.org/2000/svg">
<path d="M19 4.21484H3C1.89543 4.21484 1 4.93429 1 5.82176V13.8564C1 14.7438 1.89543 15.4633 3 15.4633H19C20.1046 15.4633 21 14.7438 21 13.8564V5.82176C21 4.93429 20.1046 4.21484 19 4.21484Z" stroke="black" stroke-width="2" stroke-linecap="round" stroke-linejoin="round"/>
<path d="M15 15.4623V2.60692C15 2.18074 14.7893 1.77201 14.4142 1.47066C14.0391 1.1693 13.5304 1 13 1H9C8.46957 1 7.96086 1.1693 7.58579 1.47066C7.21071 1.77201 7 2.18074 7 2.60692V15.4623" stroke="black" stroke-width="2" stroke-linecap="round" stroke-linejoin="round"/>
</svg>
